{
  "accessors": [
    {
      "bufferView": 2,
      "componentType": 5126,
      "count": 65532,
      "max": [
        1.4690049886703491,
        8.4054994583129883,
        0.48003301024436951
      ],
      "min": [
        -0.74058598279953003,
        7.0084929466247559,
        -0.64308798313140869
      ],
      "type": "VEC3"
    },
    {
      "bufferView": 2,
      "byteOffset": 786384,
      "componentType": 5126,
      "count": 65532,
      "max": [
        0.99995619058609009,
        0.99937885999679565,
        0.99989354610443115
      ],
      "min": [
        -0.99998593330383301,
        -0.99982857704162598,
        -0.99999803304672241
      ],
      "type": "VEC3"
    },
    {
      "bufferView": 1,
      "componentType": 5126,
      "count": 65532,
      "max": [
        0.91487699747085571,
        1
      ],
      "min": [
        0.00048700001207180321,
        0.00084100000094622374
      ],
      "type": "VEC2"
    },
    {
      "bufferView": 0,
      "componentType": 5125,
      "count": 373395,
      "max": [
        65531
      ],
      "min": [
        0
      ],
      "type": "SCALAR"
    },
    {
      "bufferView": 2,
      "byteOffset": 1572768,
      "componentType": 5126,
      "count": 17684,
      "max": [
        0.060910001397132874,
        7.6795330047607422,
        0.48032099008560181
      ],
      "min": [
        -0.74641197919845581,
        6.9238138198852539,
        -0.61603200435638428
      ],
      "type": "VEC3"
    },
    {
      "bufferView": 2,
      "byteOffset": 1784976,
      "componentType": 5126,
      "count": 17684,
      "max": [
        0.99280548095703125,
        0.99798405170440674,
        0.9998852014541626
      ],
      "min": [
        -0.99999374151229858,
        -0.99982857704162598,
        -0.99999803304672241
      ],
      "type": "VEC3"
    },
    {
      "bufferView": 1,
      "byteOffset": 524256,
      "componentType": 5126,
      "count": 17684,
      "max": [
        0.959197998046875,
        0.85144799947738647
      ],
      "min": [
        0.0015290000010281801,
        0
      ],
      "type": "VEC2"
    },
    {
      "bufferView": 0,
      "byteOffset": 1493580,
      "componentType": 5125,
      "count": 88179,
      "max": [
        17683
      ],
      "min": [
        0
      ],
      "type": "SCALAR"
    }
  ],
  "asset": {
    "extras": {
      "author": "Digital Atlas of Ancient Life (https://sketchfab.com/DigitalAtlasOfAncientLife)",
      "license": "CC0-1.0 (http://creativecommons.org/publicdomain/zero/1.0/)",
      "source": "https://sketchfab.com/3d-models/polysporangiophyte-rhynie-chert-cornell-univ-1def9876e6294821a192ea7add4dd565",
      "title": "Polysporangiophyte: Rhynie Chert (Cornell Univ.)"
    },
    "generator": "Sketchfab-7.80.0",
    "version": "2.0"
  },
  "bufferViews": [
    {
      "buffer": 0,
      "byteLength": 1846296,
      "byteOffset": 0,
      "name": "floatBufferViews",
      "target": 34963
    },
    {
      "buffer": 0,
      "byteLength": 665728,
      "byteOffset": 1846296,
      "byteStride": 8,
      "name": "floatBufferViews",
      "target": 34962
    },
    {
      "buffer": 0,
      "byteLength": 1997184,
      "byteOffset": 2512024,
      "byteStride": 12,
      "name": "floatBufferViews",
      "target": 34962
    }
  ],
  "buffers": [
    {
      "byteLength": 4509208,
      "uri": "scene.bin"
    }
  ],
  "extensionsUsed": [
    "KHR_materials_unlit"
  ],
  "images": [
    {
      "uri": "textures/RhynieChert_baseColor.jpeg"
    }
  ],
  "materials": [
    {
      "doubleSided": true,
      "emissiveFactor": [
        0,
        0,
        0
      ],
      "extensions": {
        "KHR_materials_unlit": {}
      },
      "name": "RhynieChert",
      "pbrMetallicRoughness": {
        "baseColorFactor": [
          1,
          1,
          1,
          1
        ],
        "baseColorTexture": {
          "index": 0,
          "texCoord": 0
        },
        "metallicFactor": 0,
        "roughnessFactor": 1
      }
    }
  ],
  "meshes": [
    {
      "primitives": [
        {
          "attributes": {
            "NORMAL": 1,
            "POSITION": 0,
            "TEXCOORD_0": 2
          },
          "indices": 3,
          "material": 0,
          "mode": 4
        }
      ]
    },
    {
      "primitives": [
        {
          "attributes": {
            "NORMAL": 5,
            "POSITION": 4,
            "TEXCOORD_0": 6
          },
          "indices": 7,
          "material": 0,
          "mode": 4
        }
      ]
    }
  ],
  "nodes": [
    {
      "children": [
        1
      ],
      "name": "RootNode (gltf orientation matrix)",
      "rotation": [
        -0.70710678118654746,
        -0,
        -0,
        0.70710678118654757
      ]
    },
    {
      "children": [
        2
      ],
      "matrix": [
        0.89833563566207886,
        -0.40890258550643921,
        0.1605982631444931,
        0,
        0.43927159905433655,
        0.83126091957092285,
        -0.34065482020378113,
        0,
        0.005795575212687254,
        0.37656861543655396,
        0.92637062072753906,
        0,
        -3.3296616077423096,
        1.4717071056365967,
        2.5469851493835449,
        1
      ],
      "name": "RootNode (model correction matrix)"
    },
    {
      "children": [
        3,
        4
      ],
      "name": "RhynieChert.obj.cleaner.materialmerger.gles"
    },
    {
      "mesh": 0,
      "name": ""
    },
    {
      "mesh": 1,
      "name": ""
    }
  ],
  "samplers": [
    {
      "magFilter": 9729,
      "minFilter": 9987,
      "wrapS": 10497,
      "wrapT": 10497
    }
  ],
  "scene": 0,
  "scenes": [
    {
      "name": "OSG_Scene",
      "nodes": [
        0
      ]
    }
  ],
  "textures": [
    {
      "sampler": 0,
      "source": 0
    }
  ]
}

