{
  "accessors": [
    {
      "bufferView": 2,
      "componentType": 5126,
      "count": 65532,
      "max": [
        6.4468097686767578,
        18.127925872802734,
        1.510193943977356
      ],
      "min": [
        2.7640969753265381,
        14.40516471862793,
        -1.0747460126876831
      ],
      "type": "VEC3"
    },
    {
      "bufferView": 2,
      "byteOffset": 786384,
      "componentType": 5126,
      "count": 65532,
      "max": [
        0.99997168779373169,
        0.9999549388885498,
        0.99987965822219849
      ],
      "min": [
        -0.99519920349121094,
        -0.9999847412109375,
        -0.99999374151229858
      ],
      "type": "VEC3"
    },
    {
      "bufferView": 1,
      "componentType": 5126,
      "count": 65532,
      "max": [
        0.96550697088241577,
        1
      ],
      "min": [
        0.007342000026255846,
        0.00015399999392684549
      ],
      "type": "VEC2"
    },
    {
      "bufferView": 0,
      "componentType": 5125,
      "count": 373209,
      "max": [
        65531
      ],
      "min": [
        0
      ],
      "type": "SCALAR"
    },
    {
      "bufferView": 2,
      "byteOffset": 1572768,
      "componentType": 5126,
      "count": 65532,
      "max": [
        4.4484920501708984,
        18.431066513061523,
        1.564160943031311
      ],
      "min": [
        1.6852229833602905,
        14.723822593688965,
        -1.1174889802932739
      ],
      "type": "VEC3"
    },
    {
      "bufferView": 2,
      "byteOffset": 2359152,
      "componentType": 5126,
      "count": 65532,
      "max": [
        0.99977123737335205,
        0.9997289776802063,
        0.99993681907653809
      ],
      "min": [
        -0.99997323751449585,
        -0.99999326467514038,
        -0.99994409084320068
      ],
      "type": "VEC3"
    },
    {
      "bufferView": 1,
      "byteOffset": 524256,
      "componentType": 5126,
      "count": 65532,
      "max": [
        0.96573501825332642,
        1
      ],
      "min": [
        0,
        0.031837001442909241
      ],
      "type": "VEC2"
    },
    {
      "bufferView": 0,
      "byteOffset": 1492836,
      "componentType": 5125,
      "count": 359682,
      "max": [
        65531
      ],
      "min": [
        0
      ],
      "type": "SCALAR"
    },
    {
      "bufferView": 2,
      "byteOffset": 3145536,
      "componentType": 5126,
      "count": 15576,
      "max": [
        2.5955979824066162,
        18.210491180419922,
        1.3250139951705933
      ],
      "min": [
        1.6852229833602905,
        15.160806655883789,
        -1.1174889802932739
      ],
      "type": "VEC3"
    },
    {
      "bufferView": 2,
      "byteOffset": 3332448,
      "componentType": 5126,
      "count": 15576,
      "max": [
        0.99930864572525024,
        0.99945670366287231,
        0.99999725818634033
      ],
      "min": [
        -0.99992614984512329,
        -0.99999344348907471,
        -0.9997292160987854
      ],
      "type": "VEC3"
    },
    {
      "bufferView": 1,
      "byteOffset": 1048512,
      "componentType": 5126,
      "count": 15576,
      "max": [
        0.92630600929260254,
        0.8406059741973877
      ],
      "min": [
        0.14924600720405579,
        0.22924299538135529
      ],
      "type": "VEC2"
    },
    {
      "bufferView": 0,
      "byteOffset": 2931564,
      "componentType": 5125,
      "count": 73305,
      "max": [
        15575
      ],
      "min": [
        0
      ],
      "type": "SCALAR"
    }
  ],
  "asset": {
    "extras": {
      "author": "Digital Atlas of Ancient Life (https://sketchfab.com/DigitalAtlasOfAncientLife)",
      "license": "CC0-1.0 (http://creativecommons.org/publicdomain/zero/1.0/)",
      "source": "https://sketchfab.com/3d-models/stromatolite-cryptozoon-rosemontensis-cornell-812b831236574af3bbccd05117ce7bb6",
      "title": "Stromatolite: Cryptozoon rosemontensis (Cornell)"
    },
    "generator": "Sketchfab-7.80.0",
    "version": "2.0"
  },
  "bufferViews": [
    {
      "buffer": 0,
      "byteLength": 3224784,
      "byteOffset": 0,
      "name": "floatBufferViews",
      "target": 34963
    },
    {
      "buffer": 0,
      "byteLength": 1173120,
      "byteOffset": 3224784,
      "byteStride": 8,
      "name": "floatBufferViews",
      "target": 34962
    },
    {
      "buffer": 0,
      "byteLength": 3519360,
      "byteOffset": 4397904,
      "byteStride": 12,
      "name": "floatBufferViews",
      "target": 34962
    }
  ],
  "buffers": [
    {
      "byteLength": 7917264,
      "uri": "scene.bin"
    }
  ],
  "extensionsUsed": [
    "KHR_materials_unlit"
  ],
  "images": [
    {
      "uri": "textures/LF_Stromatolite_1_baseColor.jpeg"
    }
  ],
  "materials": [
    {
      "doubleSided": true,
      "emissiveFactor": [
        0,
        0,
        0
      ],
      "extensions": {
        "KHR_materials_unlit": {}
      },
      "name": "LF_Stromatolite_1",
      "pbrMetallicRoughness": {
        "baseColorFactor": [
          1,
          1,
          1,
          1
        ],
        "baseColorTexture": {
          "index": 0,
          "texCoord": 0
        },
        "metallicFactor": 0,
        "roughnessFactor": 1
      }
    }
  ],
  "meshes": [
    {
      "primitives": [
        {
          "attributes": {
            "NORMAL": 1,
            "POSITION": 0,
            "TEXCOORD_0": 2
          },
          "indices": 3,
          "material": 0,
          "mode": 4
        }
      ]
    },
    {
      "primitives": [
        {
          "attributes": {
            "NORMAL": 5,
            "POSITION": 4,
            "TEXCOORD_0": 6
          },
          "indices": 7,
          "material": 0,
          "mode": 4
        }
      ]
    },
    {
      "primitives": [
        {
          "attributes": {
            "NORMAL": 9,
            "POSITION": 8,
            "TEXCOORD_0": 10
          },
          "indices": 11,
          "material": 0,
          "mode": 4
        }
      ]
    }
  ],
  "nodes": [
    {
      "children": [
        1
      ],
      "name": "RootNode (gltf orientation matrix)",
      "rotation": [
        -0.70710678118654746,
        -0,
        -0,
        0.70710678118654757
      ]
    },
    {
      "children": [
        2
      ],
      "matrix": [
        -0.99060171842575073,
        -0.12895755469799042,
        0.045587658882141113,
        0,
        0.017065625637769699,
        0.21416272222995758,
        0.97664892673492432,
        0,
        -0.13570943474769592,
        0.96824806928634644,
        -0.20994922518730164,
        0,
        7.8439512252807617,
        13.210101127624512,
        -15.949913024902344,
        1
      ],
      "name": "RootNode (model correction matrix)"
    },
    {
      "children": [
        3,
        4,
        5
      ],
      "name": "LF_Stromatolite_1.obj.cleaner.materialmerger.gles"
    },
    {
      "mesh": 0,
      "name": ""
    },
    {
      "mesh": 1,
      "name": ""
    },
    {
      "mesh": 2,
      "name": ""
    }
  ],
  "samplers": [
    {
      "magFilter": 9729,
      "minFilter": 9987,
      "wrapS": 10497,
      "wrapT": 10497
    }
  ],
  "scene": 0,
  "scenes": [
    {
      "name": "OSG_Scene",
      "nodes": [
        0
      ]
    }
  ],
  "textures": [
    {
      "sampler": 0,
      "source": 0
    }
  ]
}

