{
  "accessors": [
    {
      "bufferView": 2,
      "componentType": 5126,
      "count": 21651,
      "max": [
        0.61623698472976685,
        6.1998848915100098,
        0.48265600204467773
      ],
      "min": [
        -0.43147701025009155,
        5.5507230758666992,
        -0.63622397184371948
      ],
      "type": "VEC3"
    },
    {
      "bufferView": 2,
      "byteOffset": 259812,
      "componentType": 5126,
      "count": 21651,
      "max": [
        0.99980926513671875,
        0.99999284744262695,
        0.99990624189376831
      ],
      "min": [
        -0.99934840202331543,
        -0.99996602535247803,
        -0.99992060661315918
      ],
      "type": "VEC3"
    },
    {
      "bufferView": 1,
      "componentType": 5126,
      "count": 21651,
      "max": [
        0.99998700618743896,
        0.98810297250747681
      ],
      "min": [
        1.7000000298139639e-05,
        1.4999999621068127e-05
      ],
      "type": "VEC2"
    },
    {
      "bufferView": 0,
      "componentType": 5125,
      "count": 85824,
      "max": [
        21650
      ],
      "min": [
        0
      ],
      "type": "SCALAR"
    }
  ],
  "asset": {
    "extras": {
      "author": "Digital Atlas of Ancient Life (https://sketchfab.com/DigitalAtlasOfAncientLife)",
      "license": "CC0-1.0 (http://creativecommons.org/publicdomain/zero/1.0/)",
      "source": "https://sketchfab.com/3d-models/coquina-pri-5f02b5f4f3e24012a3ff7f1735dca67f",
      "title": "Coquina (PRI)"
    },
    "generator": "Sketchfab-7.80.0",
    "version": "2.0"
  },
  "bufferViews": [
    {
      "buffer": 0,
      "byteLength": 343296,
      "byteOffset": 0,
      "name": "floatBufferViews",
      "target": 34963
    },
    {
      "buffer": 0,
      "byteLength": 173208,
      "byteOffset": 343296,
      "byteStride": 8,
      "name": "floatBufferViews",
      "target": 34962
    },
    {
      "buffer": 0,
      "byteLength": 519624,
      "byteOffset": 516504,
      "byteStride": 12,
      "name": "floatBufferViews",
      "target": 34962
    }
  ],
  "buffers": [
    {
      "byteLength": 1036128,
      "uri": "scene.bin"
    }
  ],
  "extensionsUsed": [
    "KHR_materials_unlit"
  ],
  "images": [
    {
      "uri": "textures/PRI_Coquina_baseColor.jpeg"
    }
  ],
  "materials": [
    {
      "doubleSided": true,
      "emissiveFactor": [
        0,
        0,
        0
      ],
      "extensions": {
        "KHR_materials_unlit": {}
      },
      "name": "PRI_Coquina",
      "pbrMetallicRoughness": {
        "baseColorFactor": [
          1,
          1,
          1,
          1
        ],
        "baseColorTexture": {
          "index": 0,
          "texCoord": 0
        },
        "metallicFactor": 0,
        "roughnessFactor": 1
      }
    }
  ],
  "meshes": [
    {
      "primitives": [
        {
          "attributes": {
            "NORMAL": 1,
            "POSITION": 0,
            "TEXCOORD_0": 2
          },
          "indices": 3,
          "material": 0,
          "mode": 4
        }
      ]
    }
  ],
  "nodes": [
    {
      "children": [
        1
      ],
      "name": "RootNode (gltf orientation matrix)",
      "rotation": [
        -0.70710678118654746,
        -0,
        -0,
        0.70710678118654757
      ]
    },
    {
      "children": [
        2
      ],
      "matrix": [
        -0.15187565982341766,
        0.80378353595733643,
        0.57520931959152222,
        0,
        -0.11239424347877502,
        0.56414097547531128,
        -0.81799298524856567,
        0,
        -0.98198843002319336,
        -0.18888343870639801,
        0.0046613616868853569,
        0,
        0.69135916233062744,
        2.4720461368560791,
        4.6763906478881836,
        1
      ],
      "name": "RootNode (model correction matrix)"
    },
    {
      "children": [
        3
      ],
      "name": "PRI_Coquina.obj.cleaner.materialmerger.gles"
    },
    {
      "mesh": 0,
      "name": ""
    }
  ],
  "samplers": [
    {
      "magFilter": 9729,
      "minFilter": 9987,
      "wrapS": 10497,
      "wrapT": 10497
    }
  ],
  "scene": 0,
  "scenes": [
    {
      "name": "OSG_Scene",
      "nodes": [
        0
      ]
    }
  ],
  "textures": [
    {
      "sampler": 0,
      "source": 0
    }
  ]
}

